<?xml version="1.0" standalone="no"?>
<!DOCTYPE svg PUBLIC "-//W3C//DTD SVG 20010904//EN"
 "http://www.w3.org/TR/2001/REC-SVG-20010904/DTD/svg10.dtd">
<svg version="1.0" xmlns="http://www.w3.org/2000/svg"
 width="311.000000pt" height="311.000000pt" viewBox="0 0 311.000000 311.000000"
 preserveAspectRatio="xMidYMid meet">
<metadata>
Created by potrace 1.14, written by Peter Selinger 2001-2017
</metadata>
<g transform="translate(0.000000,311.000000) scale(0.100000,-0.100000)"
fill="#000000" stroke="none">
<path d="M1495 3102 c-27 -6 -89 -51 -146 -104 -52 -48 -95 -87 -219 -198 -46
-41 -95 -86 -109 -99 -14 -13 -57 -51 -95 -85 -38 -33 -92 -82 -120 -108 -97
-91 -111 -104 -190 -173 -44 -39 -94 -83 -111 -100 -18 -16 -67 -61 -110 -100
-184 -164 -213 -196 -247 -263 l-33 -67 -1 -825 -2 -825 24 -47 c13 -25 36
-55 51 -65 61 -42 87 -46 241 -39 196 9 258 13 312 20 25 4 63 9 85 12 33 4
108 19 206 39 126 26 338 96 456 151 l77 35 85 -39 c80 -37 277 -107 329 -117
12 -2 26 -6 31 -9 5 -3 26 -8 47 -11 22 -4 47 -8 56 -11 21 -6 53 -13 98 -20
19 -3 37 -7 40 -9 3 -2 30 -6 60 -10 30 -3 69 -8 85 -10 84 -12 223 -20 337
-20 125 0 127 0 170 30 26 19 52 49 65 75 l22 45 0 805 c1 790 1 806 -20 859
-41 109 -66 140 -233 286 -38 33 -83 74 -101 90 -17 17 -69 64 -115 105 -45
41 -98 89 -117 106 -18 18 -61 56 -94 85 -34 30 -78 70 -99 89 -20 19 -68 62
-105 95 -38 33 -76 67 -84 76 -9 8 -61 56 -116 105 -109 97 -149 133 -210 189
-22 20 -51 41 -64 46 -29 12 -108 18 -136 11z m125 -153 c40 -34 177 -159 226
-204 17 -16 65 -59 105 -95 40 -36 81 -72 89 -80 9 -8 54 -49 100 -90 46 -41
95 -86 109 -99 37 -33 178 -160 224 -201 22 -19 54 -48 72 -65 18 -16 70 -64
116 -105 129 -115 144 -131 174 -189 l28 -53 1 -762 c1 -418 -2 -780 -5 -804
-9 -65 -25 -75 -116 -75 -71 -1 -231 9 -293 18 -14 2 -50 7 -80 10 -30 4 -62
9 -70 10 -196 36 -211 40 -365 84 -91 26 -207 70 -220 83 -7 7 -2 15 15 26
127 86 280 229 337 316 65 98 88 234 68 391 -5 33 -8 71 -8 85 1 54 28 333 38
390 1 8 6 40 10 70 3 30 8 66 10 80 2 14 6 48 10 75 7 59 12 98 20 142 5 26 1
38 -18 57 -24 24 -30 25 -90 13 -9 -2 -15 15 -31 88 -12 55 -46 115 -70 121
-25 6 -317 -44 -421 -72 -80 -22 -94 -20 -203 26 -123 53 -153 58 -184 28 -27
-26 -86 -115 -117 -175 -11 -23 -25 -44 -30 -47 -4 -3 -30 6 -57 19 -51 26
-79 25 -102 -4 -12 -15 -11 -58 3 -156 2 -11 6 -45 10 -75 3 -30 8 -64 10 -75
3 -11 7 -54 11 -95 3 -41 7 -88 9 -105 8 -73 16 -211 20 -340 5 -170 9 -203
34 -281 28 -88 52 -132 120 -216 66 -82 155 -166 250 -234 l64 -47 -35 -18
c-61 -31 -289 -102 -403 -125 -113 -23 -239 -44 -280 -48 -27 -2 -84 -8 -125
-12 -41 -4 -128 -8 -193 -8 -112 -1 -119 0 -136 22 -16 22 -17 76 -16 820 l1
797 23 52 c22 49 45 74 195 208 7 6 39 35 72 65 33 30 95 87 138 125 43 39 91
81 106 95 15 14 62 57 104 94 42 38 87 78 100 90 12 12 65 59 116 106 52 47
117 105 144 130 28 25 60 54 72 65 20 19 102 92 173 155 47 41 93 41 141 -1z
m340 -932 c6 -23 15 -55 19 -72 4 -16 6 -36 4 -42 -4 -12 -95 -63 -112 -63 -4
0 -28 19 -52 41 -24 23 -68 57 -96 77 -29 19 -53 38 -53 43 0 11 20 16 135 34
54 9 100 17 102 18 1 2 11 3 22 4 16 1 23 -7 31 -40z m-575 -12 c181 -78 387
-214 364 -241 -6 -8 -46 -34 -88 -59 -42 -26 -83 -51 -92 -57 -13 -9 -39 3
-130 59 -63 39 -148 90 -189 113 -41 24 -78 48 -81 53 -12 17 81 177 102 177
5 0 56 -20 114 -45z m-287 -237 c31 -17 104 -60 161 -95 57 -34 105 -63 108
-63 13 0 386 -253 413 -280 3 -3 23 -18 45 -35 67 -50 147 -137 169 -185 28
-60 29 -229 2 -307 -10 -29 -21 -53 -26 -53 -5 0 -11 -8 -15 -18 -20 -66 -334
-322 -394 -322 -46 0 -276 181 -351 276 -94 119 -127 211 -129 364 -3 158 -14
348 -26 470 -7 68 -14 126 -20 170 -3 25 -8 60 -10 78 -2 17 0 32 6 32 6 0 36
-14 67 -32z m977 2 c-2 -3 -6 -26 -10 -50 -3 -25 -8 -58 -11 -75 -8 -46 -15
-96 -18 -135 -21 -217 -22 -224 -53 -193 -41 41 -198 164 -270 211 -27 18 -39
32 -34 40 7 12 278 176 351 213 24 12 37 14 42 6 4 -6 5 -14 3 -17z"/>
</g>
</svg>
